
      <svg data-logo="logo" xmlns="http://www.w3.org/2000/svg" viewBox="0 0 277 28">
        <g id="logogram" transform="translate(0, 14) rotate(0) "></g>
        <g id="logotype" transform="translate(0, 1)"><path fill="#4EBBF2" d="M11.25 26L11.25 26L4.67 26L4.67 21.51L11.01 21.51Q13.47 21.51 15.13 20.63Q16.80 19.76 17.64 17.93Q18.47 16.10 18.47 13.25L18.47 13.25Q18.47 10.41 17.63 8.59Q16.78 6.77 15.13 5.90Q13.48 5.03 11.04 5.03L11.04 5.03L4.55 5.03L4.55 0.54L11.35 0.54Q15.18 0.54 17.94 2.07Q20.70 3.60 22.18 6.44Q23.67 9.29 23.67 13.25L23.67 13.25Q23.67 17.23 22.18 20.09Q20.70 22.94 17.91 24.47Q15.12 26 11.25 26ZM2.31 0.54L7.52 0.54L7.52 26L2.31 26L2.31 0.54ZM30.32 14.94L30.32 14.94L30.32 26L25.19 26L25.19 0.54L30.21 0.54L30.21 11.66L29.80 11.66Q30.55 9.27 32.08 7.96Q33.61 6.65 36.04 6.65L36.04 6.65Q38.02 6.65 39.50 7.52Q40.98 8.38 41.79 10.00Q42.60 11.61 42.60 13.85L42.60 13.85L42.60 26L37.48 26L37.48 14.74Q37.48 12.96 36.56 11.95Q35.65 10.94 34.02 10.94L34.02 10.94Q32.95 10.94 32.10 11.41Q31.26 11.88 30.79 12.77Q30.32 13.66 30.32 14.94ZM50.03 26.38L50.03 26.38Q48.22 26.38 46.78 25.74Q45.34 25.09 44.51 23.82Q43.68 22.55 43.68 20.65L43.68 20.65Q43.68 19.06 44.27 17.98Q44.86 16.91 45.87 16.26Q46.89 15.61 48.18 15.27Q49.47 14.93 50.89 14.79L50.89 14.79Q52.55 14.62 53.56 14.47Q54.58 14.33 55.05 14.01Q55.52 13.70 55.52 13.08L55.52 13.08L55.52 12.99Q55.52 12.17 55.18 11.61Q54.84 11.05 54.17 10.75Q53.50 10.45 52.53 10.45L52.53 10.45Q51.54 10.45 50.80 10.75Q50.07 11.05 49.61 11.54Q49.15 12.04 48.92 12.65L48.92 12.65L44.22 11.87Q44.72 10.21 45.87 9.05Q47.01 7.88 48.71 7.27Q50.41 6.65 52.53 6.65L52.53 6.65Q54.09 6.65 55.54 7.02Q56.99 7.39 58.14 8.16Q59.30 8.93 59.97 10.16Q60.65 11.39 60.65 13.13L60.65 13.13L60.65 26L55.79 26L55.79 23.35L55.62 23.35Q55.16 24.24 54.39 24.91Q53.62 25.59 52.54 25.98Q51.45 26.38 50.03 26.38ZM51.49 22.77L51.49 22.77Q52.70 22.77 53.62 22.29Q54.53 21.81 55.04 20.99Q55.55 20.17 55.55 19.16L55.55 19.16L55.55 17.10Q55.33 17.27 54.87 17.40Q54.41 17.54 53.85 17.64Q53.28 17.75 52.74 17.83Q52.19 17.92 51.76 17.97L51.76 17.97Q50.82 18.10 50.10 18.41Q49.39 18.72 48.99 19.22Q48.60 19.73 48.60 20.51L48.60 20.51Q48.60 21.25 48.98 21.75Q49.35 22.26 49.99 22.51Q50.63 22.77 51.49 22.77ZM67.87 26L62.75 26L62.75 6.89L67.70 6.89L67.70 10.23L67.91 10.23Q68.44 8.45 69.68 7.54Q70.92 6.64 72.52 6.64L72.52 6.64Q72.92 6.64 73.37 6.68Q73.82 6.72 74.18 6.81L74.18 6.81L74.18 11.39Q73.84 11.27 73.19 11.20Q72.54 11.13 71.96 11.13L71.96 11.13Q70.80 11.13 69.86 11.64Q68.92 12.14 68.40 13.04Q67.87 13.93 67.87 15.13L67.87 15.13L67.87 26ZM81.31 26.24L81.31 26.24Q79.32 26.24 77.84 25.38Q76.35 24.51 75.54 22.90Q74.73 21.28 74.73 19.04L74.73 19.04L74.73 6.89L79.85 6.89L79.85 18.16Q79.85 19.93 80.78 20.94Q81.70 21.95 83.30 21.95L83.30 21.95Q84.40 21.95 85.24 21.48Q86.07 21.01 86.54 20.11Q87.01 19.22 87.01 17.95L87.01 17.95L87.01 6.89L92.14 6.89L92.14 26L87.30 26L87.24 21.23L87.53 21.23Q86.77 23.64 85.23 24.94Q83.68 26.24 81.31 26.24ZM99.37 14.94L99.37 14.94L99.37 26L94.24 26L94.24 6.89L99.08 6.89L99.16 11.66L98.85 11.66Q99.61 9.27 101.14 7.96Q102.67 6.65 105.09 6.65L105.09 6.65Q107.07 6.65 108.54 7.52Q110.01 8.38 110.83 10.00Q111.65 11.61 111.65 13.85L111.65 13.85L111.65 26L106.53 26L106.53 14.74Q106.53 12.96 105.61 11.95Q104.70 10.94 103.08 10.94L103.08 10.94Q102.00 10.94 101.15 11.41Q100.31 11.88 99.84 12.77Q99.37 13.66 99.37 14.94ZM130.43 12.82L123.73 20.24L123.73 15.49Q124.52 14.07 125.27 12.88Q126.02 11.68 126.93 10.47Q127.83 9.27 129.00 7.85L129.00 7.85L135.23 0.54L141.61 0.54L130.86 12.98L130.43 12.82ZM125.10 26L119.89 26L119.89 0.54L125.10 0.54L125.10 7.49L125.00 13.99L125.10 16.53L125.10 26ZM141.88 26L135.71 26L128.16 14.52L131.46 10.62L141.88 26ZM149.25 26.24L149.25 26.24Q147.26 26.24 145.78 25.38Q144.29 24.51 143.48 22.90Q142.67 21.28 142.67 19.04L142.67 19.04L142.67 6.89L147.79 6.89L147.79 18.16Q147.79 19.93 148.72 20.94Q149.64 21.95 151.25 21.95L151.25 21.95Q152.34 21.95 153.18 21.48Q154.01 21.01 154.48 20.11Q154.95 19.22 154.95 17.95L154.95 17.95L154.95 6.89L160.08 6.89L160.08 26L155.24 26L155.18 21.23L155.47 21.23Q154.72 23.64 153.17 24.94Q151.62 26.24 149.25 26.24ZM167.31 26L162.18 26L162.18 6.89L166.93 6.89L167.19 11.64L166.81 11.64Q167.26 9.88 168.12 8.77Q168.98 7.66 170.15 7.13Q171.31 6.60 172.59 6.60L172.59 6.60Q174.66 6.60 175.92 7.91Q177.19 9.22 177.78 11.95L177.78 11.95L177.19 11.95Q177.61 10.12 178.58 8.94Q179.54 7.75 180.87 7.18Q182.19 6.60 183.65 6.60L183.65 6.60Q185.41 6.60 186.78 7.37Q188.16 8.14 188.95 9.59Q189.75 11.03 189.75 13.11L189.75 13.11L189.75 26L184.62 26L184.62 14.09Q184.62 12.46 183.74 11.68Q182.86 10.89 181.58 10.89L181.58 10.89Q180.62 10.89 179.91 11.31Q179.20 11.73 178.82 12.48Q178.43 13.23 178.43 14.24L178.43 14.24L178.43 26L173.48 26L173.48 13.95Q173.48 12.55 172.65 11.72Q171.82 10.89 170.50 10.89L170.50 10.89Q169.60 10.89 168.87 11.30Q168.15 11.71 167.73 12.51Q167.31 13.30 167.31 14.45L167.31 14.45L167.31 26ZM197.18 26.38L197.18 26.38Q195.37 26.38 193.92 25.74Q192.48 25.09 191.65 23.82Q190.82 22.55 190.82 20.65L190.82 20.65Q190.82 19.06 191.41 17.98Q192.00 16.91 193.02 16.26Q194.03 15.61 195.32 15.27Q196.62 14.93 198.03 14.79L198.03 14.79Q199.69 14.62 200.71 14.47Q201.73 14.33 202.20 14.01Q202.67 13.70 202.67 13.08L202.67 13.08L202.67 12.99Q202.67 12.17 202.32 11.61Q201.98 11.05 201.31 10.75Q200.65 10.45 199.67 10.45L199.67 10.45Q198.68 10.45 197.95 10.75Q197.21 11.05 196.75 11.54Q196.29 12.04 196.07 12.65L196.07 12.65L191.37 11.87Q191.86 10.21 193.01 9.05Q194.15 7.88 195.85 7.27Q197.56 6.65 199.67 6.65L199.67 6.65Q201.23 6.65 202.68 7.02Q204.13 7.39 205.29 8.16Q206.44 8.93 207.12 10.16Q207.79 11.39 207.79 13.13L207.79 13.13L207.79 26L202.94 26L202.94 23.35L202.77 23.35Q202.31 24.24 201.54 24.91Q200.77 25.59 199.68 25.98Q198.60 26.38 197.18 26.38ZM198.63 22.77L198.63 22.77Q199.85 22.77 200.76 22.29Q201.67 21.81 202.19 20.99Q202.70 20.17 202.70 19.16L202.70 19.16L202.70 17.10Q202.48 17.27 202.02 17.40Q201.55 17.54 200.99 17.64Q200.43 17.75 199.88 17.83Q199.33 17.92 198.91 17.97L198.91 17.97Q197.97 18.10 197.25 18.41Q196.53 18.72 196.14 19.22Q195.74 19.73 195.74 20.51L195.74 20.51Q195.74 21.25 196.12 21.75Q196.50 22.26 197.14 22.51Q197.78 22.77 198.63 22.77ZM215.02 26L209.89 26L209.89 6.89L214.85 6.89L214.85 10.23L215.05 10.23Q215.58 8.45 216.82 7.54Q218.06 6.64 219.67 6.64L219.67 6.64Q220.06 6.64 220.51 6.68Q220.97 6.72 221.33 6.81L221.33 6.81L221.33 11.39Q220.98 11.27 220.33 11.20Q219.68 11.13 219.10 11.13L219.10 11.13Q217.94 11.13 217.00 11.64Q216.06 12.14 215.54 13.04Q215.02 13.93 215.02 15.13L215.02 15.13L215.02 26ZM237.33 26.38L237.33 26.38Q234.28 26.38 232.01 25.44Q229.75 24.50 228.48 22.65Q227.22 20.80 227.15 18.10L227.15 18.10L232.22 18.10Q232.33 19.39 232.99 20.25Q233.66 21.11 234.77 21.54Q235.88 21.97 237.28 21.97L237.28 21.97Q238.68 21.97 239.72 21.57Q240.75 21.16 241.33 20.43Q241.91 19.69 241.91 18.72L241.91 18.72Q241.91 17.85 241.39 17.26Q240.87 16.67 239.90 16.24Q238.92 15.81 237.52 15.49L237.52 15.49L234.72 14.79Q231.49 14.00 229.66 12.32Q227.83 10.64 227.83 7.87L227.83 7.87Q227.83 5.56 229.07 3.83Q230.31 2.11 232.47 1.15Q234.63 0.19 237.40 0.19L237.40 0.19Q240.22 0.19 242.32 1.16Q244.43 2.13 245.61 3.84Q246.78 5.56 246.82 7.80L246.82 7.80L241.78 7.80Q241.64 6.26 240.47 5.42Q239.30 4.59 237.35 4.59L237.35 4.59Q236.04 4.59 235.10 4.96Q234.16 5.34 233.66 6.00Q233.16 6.67 233.16 7.53L233.16 7.53Q233.16 8.47 233.74 9.09Q234.31 9.71 235.24 10.10Q236.17 10.48 237.25 10.74L237.25 10.74L239.56 11.30Q241.16 11.66 242.55 12.28Q243.93 12.89 244.97 13.79Q246.02 14.69 246.59 15.92Q247.16 17.15 247.16 18.75L247.16 18.75Q247.16 21.06 246.00 22.78Q244.84 24.50 242.63 25.44Q240.43 26.38 237.33 26.38ZM259.87 26L254.66 26L254.66 0.54L259.87 0.54L259.87 10.82L270.96 10.82L270.96 0.54L276.19 0.54L276.19 26L270.96 26L270.96 15.15L259.87 15.15L259.87 26Z"/></g>
        
      </svg>
    